# Blender v2.80 (sub 74) OBJ File: ''
# www.blender.org
mtllib sphere_smooth.mtl
o Sphere_Sphere.001
v 0.000000 0.707107 -0.707107
v 0.000000 0.382683 -0.923880
v 0.000000 -0.382684 -0.923880
v 0.000000 -0.923880 -0.382683
v 0.146447 0.923880 -0.353553
v 0.270598 0.707107 -0.653281
v 0.353553 0.382683 -0.853553
v 0.382683 -0.000000 -0.923880
v 0.353553 -0.382684 -0.853553
v 0.270598 -0.707107 -0.653281
v 0.146447 -0.923880 -0.353553
v 0.270598 0.923880 -0.270598
v 0.500000 0.707107 -0.500000
v 0.653281 0.382683 -0.653281
v 0.707107 -0.000000 -0.707107
v 0.653281 -0.382684 -0.653281
v 0.500000 -0.707107 -0.500000
v 0.270598 -0.923880 -0.270598
v 0.353553 0.923880 -0.146447
v 0.653281 0.707107 -0.270598
v 0.853553 0.382683 -0.353553
v 0.923879 -0.000000 -0.382683
v 0.853553 -0.382684 -0.353553
v 0.653281 -0.707107 -0.270598
v 0.353553 -0.923880 -0.146447
v 0.382683 0.923880 -0.000000
v 0.707107 0.707107 -0.000000
v 0.923879 0.382683 -0.000000
v 1.000000 -0.000000 -0.000000
v 0.923879 -0.382684 -0.000000
v 0.707107 -0.707107 -0.000000
v 0.382683 -0.923880 -0.000000
v 0.353553 0.923880 0.146446
v 0.653281 0.707107 0.270598
v 0.853553 0.382683 0.353553
v 0.923879 -0.000000 0.382683
v 0.853553 -0.382684 0.353553
v 0.653281 -0.707107 0.270598
v 0.353553 -0.923880 0.146446
v 0.270598 0.923880 0.270598
v 0.500000 0.707107 0.500000
v 0.653281 0.382683 0.653281
v 0.707106 -0.000000 0.707107
v 0.653281 -0.382684 0.653281
v 0.500000 -0.707107 0.500000
v 0.270598 -0.923880 0.270598
v 0.146446 0.923880 0.353553
v 0.270598 0.707107 0.653281
v 0.353553 0.382683 0.853553
v 0.382683 -0.000000 0.923879
v 0.353553 -0.382684 0.853553
v 0.270598 -0.707107 0.653281
v 0.146446 -0.923880 0.353553
v -0.000000 0.923880 0.382683
v -0.000000 0.707107 0.707106
v -0.000000 0.382683 0.923879
v -0.000000 -0.000000 1.000000
v -0.000000 -0.382684 0.923879
v -0.000000 -0.707107 0.707106
v -0.000000 -0.923880 0.382683
v -0.146447 0.923880 0.353553
v -0.270598 0.707107 0.653281
v -0.353554 0.382683 0.853553
v -0.382684 -0.000000 0.923879
v -0.353554 -0.382684 0.853553
v -0.270598 -0.707107 0.653281
v -0.146447 -0.923880 0.353553
v -0.270598 0.923880 0.270598
v -0.500000 0.707107 0.499999
v -0.653282 0.382683 0.653281
v -0.707107 -0.000000 0.707106
v -0.653282 -0.382684 0.653281
v -0.500000 -0.707107 0.499999
v -0.270598 -0.923880 0.270598
v -0.353553 0.923880 0.146446
v -0.653281 0.707107 0.270597
v -0.853553 0.382683 0.353553
v -0.923879 -0.000000 0.382683
v -0.853553 -0.382684 0.353553
v -0.653281 -0.707107 0.270597
v -0.353553 -0.923880 0.146446
v -0.382683 0.923880 -0.000000
v -0.707106 0.707107 -0.000000
v -0.923879 0.382683 -0.000001
v -1.000000 -0.000000 -0.000001
v -0.923879 -0.382684 -0.000001
v -0.707106 -0.707107 -0.000000
v -0.382683 -0.923880 -0.000000
v -0.353553 0.923880 -0.146447
v -0.653281 0.707107 -0.270598
v -0.853553 0.382683 -0.353554
v -0.923879 -0.000000 -0.382684
v -0.853553 -0.382684 -0.353554
v -0.653281 -0.707107 -0.270598
v -0.353553 -0.923880 -0.146447
v -0.270598 0.923880 -0.270598
v -0.499999 0.707107 -0.500000
v -0.653281 0.382683 -0.653282
v -0.707106 -0.000000 -0.707107
v -0.653281 -0.382684 -0.653282
v -0.499999 -0.707107 -0.500000
v -0.270598 -0.923880 -0.270598
v -0.146446 0.923880 -0.353553
v -0.270598 0.707107 -0.653281
v -0.353553 0.382683 -0.853553
v -0.382683 -0.000000 -0.923880
v -0.353553 -0.382684 -0.853553
v -0.270598 -0.707107 -0.653281
v -0.146446 -0.923880 -0.353553
v -0.000000 1.000000 -0.000000
v 0.000000 0.923880 -0.382683
v 0.000001 -0.000000 -1.000000
v 0.000000 -0.707107 -0.707106
v 0.000000 -1.000000 -0.000000
vt 0.750000 0.250000
vt 0.750000 0.375000
vt 0.687500 0.375000
vt 0.687500 0.250000
vt 0.750000 0.500000
vt 0.750000 0.625000
vt 0.687500 0.625000
vt 0.687500 0.500000
vt 0.750000 0.750000
vt 0.750000 0.875000
vt 0.687500 0.875000
vt 0.687500 0.750000
vt 0.750000 0.125000
vt 0.687500 0.125000
vt 0.718750 1.000000
vt 0.718750 0.000000
vt 0.625000 0.250000
vt 0.625000 0.125000
vt 0.625000 0.500000
vt 0.625000 0.375000
vt 0.625000 0.750000
vt 0.625000 0.625000
vt 0.656250 1.000000
vt 0.625000 0.875000
vt 0.656250 0.000000
vt 0.562500 0.750000
vt 0.562500 0.625000
vt 0.593750 1.000000
vt 0.562500 0.875000
vt 0.593750 0.000000
vt 0.562500 0.125000
vt 0.562500 0.375000
vt 0.562500 0.250000
vt 0.562500 0.500000
vt 0.531250 0.000000
vt 0.500000 0.125000
vt 0.500000 0.375000
vt 0.500000 0.250000
vt 0.500000 0.625000
vt 0.500000 0.500000
vt 0.500000 0.875000
vt 0.500000 0.750000
vt 0.531250 1.000000
vt 0.437500 0.875000
vt 0.437500 0.750000
vt 0.437500 0.250000
vt 0.437500 0.125000
vt 0.437500 0.500000
vt 0.437500 0.375000
vt 0.437500 0.625000
vt 0.468750 1.000000
vt 0.468750 0.000000
vt 0.375000 0.250000
vt 0.375000 0.125000
vt 0.375000 0.500000
vt 0.375000 0.375000
vt 0.375000 0.750000
vt 0.375000 0.625000
vt 0.406250 1.000000
vt 0.375000 0.875000
vt 0.406250 0.000000
vt 0.343750 1.000000
vt 0.312500 0.875000
vt 0.343750 0.000000
vt 0.312500 0.125000
vt 0.312500 0.375000
vt 0.312500 0.250000
vt 0.312500 0.625000
vt 0.312500 0.500000
vt 0.312500 0.750000
vt 0.250000 0.375000
vt 0.250000 0.250000
vt 0.250000 0.625000
vt 0.250000 0.500000
vt 0.250000 0.875000
vt 0.250000 0.750000
vt 0.250000 0.125000
vt 0.281250 1.000000
vt 0.281250 0.000000
vt 0.187500 0.250000
vt 0.187500 0.125000
vt 0.187500 0.500000
vt 0.187500 0.375000
vt 0.187500 0.750000
vt 0.187500 0.625000
vt 0.218750 1.000000
vt 0.187500 0.875000
vt 0.218750 0.000000
vt 0.125000 0.500000
vt 0.125000 0.375000
vt 0.125000 0.750000
vt 0.125000 0.625000
vt 0.156250 1.000000
vt 0.125000 0.875000
vt 0.156250 0.000000
vt 0.125000 0.125000
vt 0.125000 0.250000
vt 0.093750 0.000000
vt 0.062500 0.125000
vt 0.062500 0.375000
vt 0.062500 0.250000
vt 0.062500 0.625000
vt 0.062500 0.500000
vt 0.062500 0.875000
vt 0.062500 0.750000
vt 0.093750 1.000000
vt 0.000000 0.625000
vt 0.000000 0.500000
vt 0.000000 0.875000
vt 0.000000 0.750000
vt 0.000000 0.250000
vt 0.000000 0.125000
vt 0.000000 0.375000
vt 0.031250 1.000000
vt 0.031250 0.000000
vt 1.000000 0.125000
vt 1.000000 0.250000
vt 0.937500 0.250000
vt 0.937500 0.125000
vt 1.000000 0.375000
vt 1.000000 0.500000
vt 0.937500 0.500000
vt 0.937500 0.375000
vt 1.000000 0.625000
vt 1.000000 0.750000
vt 0.937500 0.750000
vt 0.937500 0.625000
vt 1.000000 0.875000
vt 0.968750 1.000000
vt 0.937500 0.875000
vt 0.968750 0.000000
vt 0.875000 0.750000
vt 0.875000 0.625000
vt 0.906250 1.000000
vt 0.875000 0.875000
vt 0.906250 0.000000
vt 0.875000 0.125000
vt 0.875000 0.375000
vt 0.875000 0.250000
vt 0.875000 0.500000
vt 0.843750 0.000000
vt 0.812500 0.125000
vt 0.812500 0.375000
vt 0.812500 0.250000
vt 0.812500 0.625000
vt 0.812500 0.500000
vt 0.812500 0.875000
vt 0.812500 0.750000
vt 0.843750 1.000000
vt 0.781250 1.000000
vt 0.781250 0.000000
vn 0.0000 -0.6952 -0.7188
vn 0.0000 -0.3743 -0.9273
vn 0.3548 -0.3743 -0.8567
vn 0.2751 -0.6952 -0.6641
vn 0.0000 0.0000 -1.0000
vn 0.0000 0.3743 -0.9273
vn 0.3548 0.3743 -0.8567
vn 0.3827 0.0000 -0.9239
vn 0.0000 0.6952 -0.7188
vn 0.0000 0.9152 -0.4031
vn 0.1542 0.9152 -0.3724
vn 0.2751 0.6952 -0.6641
vn 0.0000 -0.9152 -0.4031
vn 0.1542 -0.9152 -0.3724
vn 0.0000 1.0000 0.0000
vn 0.0000 -1.0000 0.0000
vn 0.5083 -0.6952 -0.5083
vn 0.2850 -0.9152 -0.2850
vn 0.7071 0.0000 -0.7071
vn 0.6557 -0.3743 -0.6557
vn 0.5083 0.6952 -0.5083
vn 0.6557 0.3743 -0.6557
vn 0.2850 0.9152 -0.2850
vn 0.6641 0.6952 -0.2751
vn 0.8567 0.3743 -0.3548
vn 0.3724 0.9152 -0.1542
vn 0.3724 -0.9152 -0.1542
vn 0.8567 -0.3743 -0.3548
vn 0.6641 -0.6952 -0.2751
vn 0.9239 0.0000 -0.3827
vn 0.4031 -0.9152 0.0000
vn 0.9273 -0.3743 0.0000
vn 0.7188 -0.6952 0.0000
vn 0.9273 0.3743 0.0000
vn 1.0000 0.0000 0.0000
vn 0.4031 0.9152 0.0000
vn 0.7188 0.6952 0.0000
vn 0.3724 0.9152 0.1542
vn 0.6641 0.6952 0.2751
vn 0.6641 -0.6952 0.2751
vn 0.3724 -0.9152 0.1542
vn 0.9239 0.0000 0.3827
vn 0.8567 -0.3743 0.3548
vn 0.8567 0.3743 0.3548
vn 0.5083 -0.6952 0.5083
vn 0.2850 -0.9152 0.2850
vn 0.7071 0.0000 0.7071
vn 0.6557 -0.3743 0.6557
vn 0.5083 0.6952 0.5083
vn 0.6557 0.3743 0.6557
vn 0.2850 0.9152 0.2850
vn 0.1542 0.9152 0.3724
vn 0.1542 -0.9152 0.3724
vn 0.3548 -0.3743 0.8567
vn 0.2751 -0.6952 0.6641
vn 0.3548 0.3743 0.8567
vn 0.3827 0.0000 0.9239
vn 0.2751 0.6952 0.6641
vn 0.0000 -0.3743 0.9273
vn 0.0000 -0.6952 0.7188
vn 0.0000 0.3743 0.9273
vn 0.0000 0.0000 1.0000
vn 0.0000 0.9152 0.4031
vn 0.0000 0.6952 0.7188
vn 0.0000 -0.9152 0.4031
vn -0.2751 -0.6952 0.6641
vn -0.1542 -0.9152 0.3724
vn -0.3827 0.0000 0.9239
vn -0.3548 -0.3743 0.8567
vn -0.2751 0.6952 0.6641
vn -0.3548 0.3743 0.8567
vn -0.1542 0.9152 0.3724
vn -0.7071 0.0000 0.7071
vn -0.6557 -0.3743 0.6557
vn -0.5083 0.6952 0.5083
vn -0.6557 0.3743 0.6557
vn -0.2850 0.9152 0.2850
vn -0.2850 -0.9152 0.2850
vn -0.5083 -0.6952 0.5083
vn -0.3724 -0.9152 0.1542
vn -0.8567 -0.3743 0.3548
vn -0.6641 -0.6952 0.2751
vn -0.8567 0.3743 0.3548
vn -0.9239 0.0000 0.3827
vn -0.3724 0.9152 0.1542
vn -0.6641 0.6952 0.2751
vn -0.9273 0.3743 0.0000
vn -1.0000 0.0000 0.0000
vn -0.4031 0.9152 0.0000
vn -0.7188 0.6952 0.0000
vn -0.7188 -0.6952 0.0000
vn -0.4031 -0.9152 0.0000
vn -0.9273 -0.3743 0.0000
vn -0.6641 -0.6952 -0.2751
vn -0.3724 -0.9152 -0.1542
vn -0.9239 0.0000 -0.3827
vn -0.8567 -0.3743 -0.3548
vn -0.6641 0.6952 -0.2751
vn -0.8567 0.3743 -0.3548
vn -0.3724 0.9152 -0.1542
vn -0.5083 0.6952 -0.5083
vn -0.6557 0.3743 -0.6557
vn -0.2850 0.9152 -0.2850
vn -0.2850 -0.9152 -0.2850
vn -0.6557 -0.3743 -0.6557
vn -0.5083 -0.6952 -0.5083
vn -0.7071 0.0000 -0.7071
vn -0.1542 -0.9152 -0.3724
vn -0.3548 -0.3743 -0.8567
vn -0.2751 -0.6952 -0.6641
vn -0.3548 0.3743 -0.8567
vn -0.3827 0.0000 -0.9239
vn -0.1542 0.9152 -0.3724
vn -0.2751 0.6952 -0.6641
usemtl (null)
s 1
f 113/1/1 3/2/2 9/3/3 10/4/4
f 112/5/5 2/6/6 7/7/7 8/8/8
f 1/9/9 111/10/10 5/11/11 6/12/12
f 4/13/13 113/1/1 10/4/4 11/14/14
f 3/2/2 112/5/5 8/8/8 9/3/3
f 2/6/6 1/9/9 6/12/12 7/7/7
f 111/10/10 110/15/15 5/11/11
f 114/16/16 4/13/13 11/14/14
f 11/14/14 10/4/4 17/17/17 18/18/18
f 9/3/3 8/8/8 15/19/19 16/20/20
f 7/7/7 6/12/12 13/21/21 14/22/22
f 5/11/11 110/23/15 12/24/23
f 114/25/16 11/14/14 18/18/18
f 10/4/4 9/3/3 16/20/20 17/17/17
f 8/8/8 7/7/7 14/22/22 15/19/19
f 6/12/12 5/11/11 12/24/23 13/21/21
f 14/22/22 13/21/21 20/26/24 21/27/25
f 12/24/23 110/28/15 19/29/26
f 114/30/16 18/18/18 25/31/27
f 17/17/17 16/20/20 23/32/28 24/33/29
f 15/19/19 14/22/22 21/27/25 22/34/30
f 13/21/21 12/24/23 19/29/26 20/26/24
f 18/18/18 17/17/17 24/33/29 25/31/27
f 16/20/20 15/19/19 22/34/30 23/32/28
f 114/35/16 25/31/27 32/36/31
f 24/33/29 23/32/28 30/37/32 31/38/33
f 22/34/30 21/27/25 28/39/34 29/40/35
f 20/26/24 19/29/26 26/41/36 27/42/37
f 25/31/27 24/33/29 31/38/33 32/36/31
f 23/32/28 22/34/30 29/40/35 30/37/32
f 21/27/25 20/26/24 27/42/37 28/39/34
f 19/29/26 110/43/15 26/41/36
f 27/42/37 26/41/36 33/44/38 34/45/39
f 32/36/31 31/38/33 38/46/40 39/47/41
f 30/37/32 29/40/35 36/48/42 37/49/43
f 28/39/34 27/42/37 34/45/39 35/50/44
f 26/41/36 110/51/15 33/44/38
f 114/52/16 32/36/31 39/47/41
f 31/38/33 30/37/32 37/49/43 38/46/40
f 29/40/35 28/39/34 35/50/44 36/48/42
f 39/47/41 38/46/40 45/53/45 46/54/46
f 37/49/43 36/48/42 43/55/47 44/56/48
f 35/50/44 34/45/39 41/57/49 42/58/50
f 33/44/38 110/59/15 40/60/51
f 114/61/16 39/47/41 46/54/46
f 38/46/40 37/49/43 44/56/48 45/53/45
f 36/48/42 35/50/44 42/58/50 43/55/47
f 34/45/39 33/44/38 40/60/51 41/57/49
f 40/60/51 110/62/15 47/63/52
f 114/64/16 46/54/46 53/65/53
f 45/53/45 44/56/48 51/66/54 52/67/55
f 43/55/47 42/58/50 49/68/56 50/69/57
f 41/57/49 40/60/51 47/63/52 48/70/58
f 46/54/46 45/53/45 52/67/55 53/65/53
f 44/56/48 43/55/47 50/69/57 51/66/54
f 42/58/50 41/57/49 48/70/58 49/68/56
f 52/67/55 51/66/54 58/71/59 59/72/60
f 50/69/57 49/68/56 56/73/61 57/74/62
f 48/70/58 47/63/52 54/75/63 55/76/64
f 53/65/53 52/67/55 59/72/60 60/77/65
f 51/66/54 50/69/57 57/74/62 58/71/59
f 49/68/56 48/70/58 55/76/64 56/73/61
f 47/63/52 110/78/15 54/75/63
f 114/79/16 53/65/53 60/77/65
f 60/77/65 59/72/60 66/80/66 67/81/67
f 58/71/59 57/74/62 64/82/68 65/83/69
f 56/73/61 55/76/64 62/84/70 63/85/71
f 54/75/63 110/86/15 61/87/72
f 114/88/16 60/77/65 67/81/67
f 59/72/60 58/71/59 65/83/69 66/80/66
f 57/74/62 56/73/61 63/85/71 64/82/68
f 55/76/64 54/75/63 61/87/72 62/84/70
f 65/83/69 64/82/68 71/89/73 72/90/74
f 63/85/71 62/84/70 69/91/75 70/92/76
f 61/87/72 110/93/15 68/94/77
f 114/95/16 67/81/67 74/96/78
f 66/80/66 65/83/69 72/90/74 73/97/79
f 64/82/68 63/85/71 70/92/76 71/89/73
f 62/84/70 61/87/72 68/94/77 69/91/75
f 67/81/67 66/80/66 73/97/79 74/96/78
f 114/98/16 74/96/78 81/99/80
f 73/97/79 72/90/74 79/100/81 80/101/82
f 71/89/73 70/92/76 77/102/83 78/103/84
f 69/91/75 68/94/77 75/104/85 76/105/86
f 74/96/78 73/97/79 80/101/82 81/99/80
f 72/90/74 71/89/73 78/103/84 79/100/81
f 70/92/76 69/91/75 76/105/86 77/102/83
f 68/94/77 110/106/15 75/104/85
f 78/103/84 77/102/83 84/107/87 85/108/88
f 76/105/86 75/104/85 82/109/89 83/110/90
f 81/99/80 80/101/82 87/111/91 88/112/92
f 79/100/81 78/103/84 85/108/88 86/113/93
f 77/102/83 76/105/86 83/110/90 84/107/87
f 75/104/85 110/114/15 82/109/89
f 114/115/16 81/99/80 88/112/92
f 80/101/82 79/100/81 86/113/93 87/111/91
f 88/116/92 87/117/91 94/118/94 95/119/95
f 86/120/93 85/121/88 92/122/96 93/123/97
f 84/124/87 83/125/90 90/126/98 91/127/99
f 82/128/89 110/129/15 89/130/100
f 114/131/16 88/116/92 95/119/95
f 87/117/91 86/120/93 93/123/97 94/118/94
f 85/121/88 84/124/87 91/127/99 92/122/96
f 83/125/90 82/128/89 89/130/100 90/126/98
f 91/127/99 90/126/98 97/132/101 98/133/102
f 89/130/100 110/134/15 96/135/103
f 114/136/16 95/119/95 102/137/104
f 94/118/94 93/123/97 100/138/105 101/139/106
f 92/122/96 91/127/99 98/133/102 99/140/107
f 90/126/98 89/130/100 96/135/103 97/132/101
f 95/119/95 94/118/94 101/139/106 102/137/104
f 93/123/97 92/122/96 99/140/107 100/138/105
f 114/141/16 102/137/104 109/142/108
f 101/139/106 100/138/105 107/143/109 108/144/110
f 99/140/107 98/133/102 105/145/111 106/146/112
f 97/132/101 96/135/103 103/147/113 104/148/114
f 102/137/104 101/139/106 108/144/110 109/142/108
f 100/138/105 99/140/107 106/146/112 107/143/109
f 98/133/102 97/132/101 104/148/114 105/145/111
f 96/135/103 110/149/15 103/147/113
f 104/148/114 103/147/113 111/10/10 1/9/9
f 109/142/108 108/144/110 113/1/1 4/13/13
f 107/143/109 106/146/112 112/5/5 3/2/2
f 105/145/111 104/148/114 1/9/9 2/6/6
f 103/147/113 110/150/15 111/10/10
f 114/151/16 109/142/108 4/13/13
f 108/144/110 107/143/109 3/2/2 113/1/1
f 106/146/112 105/145/111 2/6/6 112/5/5
