{
    "asset" : {
        "generator" : "Khronos glTF Blender I/O v0.9.29",
        "version" : "2.0"
    },
    "scene" : 0,
    "scenes" : [
        {
            "name" : "Scene",
            "nodes" : [
                5,
                10
            ]
        }
    ],
    "nodes" : [
        {
            "mesh" : 0,
            "name" : "Sci_Fi_Crate_LP2_map1_0",
            "scale" : [
                0.009999990463256836,
                0.009999990463256836,
                0.009999990463256836
            ]
        },
        {
            "children" : [
                0
            ],
            "name" : "Sci_Fi_Crate_LP2"
        },
        {
            "children" : [
                1
            ],
            "name" : "RootNode"
        },
        {
            "children" : [
                2
            ],
            "name" : "Sci-Fi Crate.fbx",
            "rotation" : [
                0.7071068286895752,
                0,
                0,
                0.7071068286895752
            ]
        },
        {
            "children" : [
                3
            ],
            "name" : "RootNode (model correction matrix)"
        },
        {
            "children" : [
                4
            ],
            "name" : "RootNode (gltf orientation matrix)"
        },
        {
            "name" : "Sci_Fi_Crate_LP2.001"
        },
        {
            "children" : [
                6
            ],
            "name" : "RootNode.001"
        },
        {
            "children" : [
                7
            ],
            "name" : "Sci-Fi Crate.fbx.001",
            "rotation" : [
                0.7071068286895752,
                0,
                0,
                0.7071067094802856
            ]
        },
        {
            "children" : [
                8
            ],
            "name" : "RootNode (model correction matrix).001"
        },
        {
            "children" : [
                9
            ],
            "name" : "RootNode (gltf orientation matrix).001",
            "rotation" : [
                0.7071068286895752,
                0,
                0,
                0.7071067094802856
            ],
            "translation" : [
                112.19541931152344,
                51.31414794921875,
                -7.823127746582031
            ]
        }
    ],
    "materials" : [
        {
            "doubleSided" : true,
            "emissiveFactor" : [
                1,
                1,
                1
            ],
            "emissiveTexture" : {
                "index" : 0,
                "texCoord" : 0
            },
            "name" : "map1",
            "normalTexture" : {
                "index" : 1,
                "texCoord" : 0
            },
            "occlusionTexture" : {
                "index" : 2,
                "texCoord" : 0
            },
            "pbrMetallicRoughness" : {
                "baseColorTexture" : {
                    "index" : 3,
                    "texCoord" : 0
                },
                "metallicRoughnessTexture" : {
                    "index" : 2,
                    "texCoord" : 0
                }
            }
        }
    ],
    "meshes" : [
        {
            "name" : "Sci_Fi_Crate_LP2_map1_0",
            "primitives" : [
                {
                    "attributes" : {
                        "POSITION" : 0,
                        "NORMAL" : 1,
                        "TEXCOORD_0" : 2
                    },
                    "indices" : 3,
                    "material" : 0
                }
            ]
        }
    ],
    "textures" : [
        {
            "source" : 0
        },
        {
            "source" : 1
        },
        {
            "source" : 2
        },
        {
            "source" : 3
        }
    ],
    "images" : [
        {
            "mimeType" : "image/png",
            "name" : "map1_emissive.png",
            "uri" : "map1_emissive_png.png"
        },
        {
            "mimeType" : "image/png",
            "name" : "map1_normal.png",
            "uri" : "map1_normal_png.png"
        },
        {
            "mimeType" : "image/png",
            "name" : "map1_metallicRoughness.png",
            "uri" : "map1_metallicRoughness_png.png"
        },
        {
            "mimeType" : "image/png",
            "name" : "map1_baseColor.png",
            "uri" : "map1_baseColor_png.png"
        }
    ],
    "accessors" : [
        {
            "bufferView" : 0,
            "componentType" : 5126,
            "count" : 2860,
            "max" : [
                160.00001525878906,
                70.00000762939453,
                70.00000762939453
            ],
            "min" : [
                -160.00001525878906,
                -70.00000762939453,
                -70.00000762939453
            ],
            "type" : "VEC3"
        },
        {
            "bufferView" : 1,
            "componentType" : 5126,
            "count" : 2860,
            "type" : "VEC3"
        },
        {
            "bufferView" : 2,
            "componentType" : 5126,
            "count" : 2860,
            "type" : "VEC2"
        },
        {
            "bufferView" : 3,
            "componentType" : 5123,
            "count" : 12672,
            "type" : "SCALAR"
        }
    ],
    "bufferViews" : [
        {
            "buffer" : 0,
            "byteLength" : 34320,
            "byteOffset" : 0
        },
        {
            "buffer" : 0,
            "byteLength" : 34320,
            "byteOffset" : 34320
        },
        {
            "buffer" : 0,
            "byteLength" : 22880,
            "byteOffset" : 68640
        },
        {
            "buffer" : 0,
            "byteLength" : 25344,
            "byteOffset" : 91520
        }
    ],
    "buffers" : [
        {
            "byteLength" : 116864,
            "uri" : "scene.bin"
        }
    ]
}
