{
  "accessors": [
    {
      "bufferView": 2,
      "componentType": 5126,
      "count": 1972,
      "max": [
        0.29654300212860107,
        -0.57465797662734985,
        1.8884210586547852
      ],
      "min": [
        -0.38416698575019836,
        -1.0511709451675415,
        1.4049650430679321
      ],
      "type": "VEC3"
    },
    {
      "bufferView": 2,
      "byteOffset": 23664,
      "componentType": 5126,
      "count": 1972,
      "max": [
        0.99739521741867065,
        0.99861288070678711,
        0.99494993686676025
      ],
      "min": [
        -0.99697810411453247,
        -0.99915838241577148,
        -0.99494802951812744
      ],
      "type": "VEC3"
    },
    {
      "bufferView": 3,
      "componentType": 5126,
      "count": 1972,
      "max": [
        0.99985688924789429,
        0.9990997314453125,
        0.93636703491210938,
        1
      ],
      "min": [
        -0.9949038028717041,
        -0.93564164638519287,
        -0.93912392854690552,
        1
      ],
      "type": "VEC4"
    },
    {
      "bufferView": 1,
      "componentType": 5126,
      "count": 1972,
      "max": [
        0.99146199226379395,
        0.9979889988899231
      ],
      "min": [
        0.0053240000270307064,
        0.0064409999176859856
      ],
      "type": "VEC2"
    },
    {
      "bufferView": 0,
      "componentType": 5125,
      "count": 10848,
      "max": [
        1971
      ],
      "min": [
        0
      ],
      "type": "SCALAR"
    },
    {
      "bufferView": 2,
      "byteOffset": 47328,
      "componentType": 5126,
      "count": 5532,
      "max": [
        1.7394089698791504,
        1.1859279870986938,
        0.42607599496841431
      ],
      "min": [
        -0.073256000876426697,
        -0.45600301027297974,
        -0.0010730000212788582
      ],
      "type": "VEC3"
    },
    {
      "bufferView": 2,
      "byteOffset": 113712,
      "componentType": 5126,
      "count": 5532,
      "max": [
        0.99987369775772095,
        0.98826360702514648,
        0.99956345558166504
      ],
      "min": [
        -0.99990153312683105,
        -0.98827844858169556,
        -0.99939465522766113
      ],
      "type": "VEC3"
    },
    {
      "bufferView": 0,
      "byteOffset": 43392,
      "componentType": 5125,
      "count": 33120,
      "max": [
        5531
      ],
      "min": [
        0
      ],
      "type": "SCALAR"
    },
    {
      "bufferView": 2,
      "byteOffset": 180096,
      "componentType": 5126,
      "count": 49739,
      "max": [
        0.63881397247314453,
        0.66377401351928711,
        2.0491130352020264
      ],
      "min": [
        -0.68377602100372314,
        -1.4710370302200317,
        0.0068190000019967556
      ],
      "type": "VEC3"
    },
    {
      "bufferView": 2,
      "byteOffset": 776964,
      "componentType": 5126,
      "count": 49739,
      "max": [
        0.99973422288894653,
        0.99989831447601318,
        0.99996936321258545
      ],
      "min": [
        -0.99981075525283813,
        -0.99983423948287964,
        -0.99983841180801392
      ],
      "type": "VEC3"
    },
    {
      "bufferView": 3,
      "byteOffset": 31552,
      "componentType": 5126,
      "count": 49739,
      "max": [
        0.99995154142379761,
        0.99987274408340454,
        0.99957495927810669,
        1
      ],
      "min": [
        -0.99995201826095581,
        -0.99972867965698242,
        -0.9998551607131958,
        -1
      ],
      "type": "VEC4"
    },
    {
      "bufferView": 1,
      "byteOffset": 15776,
      "componentType": 5126,
      "count": 49739,
      "max": [
        0.99723702669143677,
        0.995993971824646
      ],
      "min": [
        0.0016029999824240804,
        0.0041000000201165676
      ],
      "type": "VEC2"
    },
    {
      "bufferView": 0,
      "byteOffset": 175872,
      "componentType": 5125,
      "count": 269088,
      "max": [
        49738
      ],
      "min": [
        0
      ],
      "type": "SCALAR"
    },
    {
      "bufferView": 2,
      "byteOffset": 1373832,
      "componentType": 5126,
      "count": 7240,
      "max": [
        1.5934959650039673,
        -0.39148598909378052,
        0.28263598680496216
      ],
      "min": [
        1.1697909832000732,
        -1.0073779821395874,
        -0.00070700002834200859
      ],
      "type": "VEC3"
    },
    {
      "bufferView": 2,
      "byteOffset": 1460712,
      "componentType": 5126,
      "count": 7240,
      "max": [
        0.99648457765579224,
        0.9950796365737915,
        0.99991977214813232
      ],
      "min": [
        -0.99958211183547974,
        -0.9997289776802063,
        -0.99992203712463379
      ],
      "type": "VEC3"
    },
    {
      "bufferView": 3,
      "byteOffset": 827376,
      "componentType": 5126,
      "count": 7240,
      "max": [
        0.99243634939193726,
        0.99253273010253906,
        0.99993324279785156,
        1
      ],
      "min": [
        -0.99969643354415894,
        -0.99990940093994141,
        -0.99985367059707642,
        -1
      ],
      "type": "VEC4"
    },
    {
      "bufferView": 1,
      "byteOffset": 413688,
      "componentType": 5126,
      "count": 7240,
      "max": [
        0.99165201187133789,
        0.99572902917861938
      ],
      "min": [
        0.0089910002425312996,
        0.0080150002613663673
      ],
      "type": "VEC2"
    },
    {
      "bufferView": 0,
      "byteOffset": 1252224,
      "componentType": 5125,
      "count": 40932,
      "max": [
        7239
      ],
      "min": [
        0
      ],
      "type": "SCALAR"
    }
  ],
  "asset": {
    "extras": {
      "author": "Aaron_Beller (https://sketchfab.com/Aaron_Beller)",
      "license": "CC-BY-4.0 (http://creativecommons.org/licenses/by/4.0/)",
      "source": "https://sketchfab.com/3d-models/lamp-c85c7a1dbb724e9ea1d90abd6445fad4",
      "title": "Lamp"
    },
    "generator": "Sketchfab-5.38.0",
    "version": "2.0"
  },
  "bufferViews": [
    {
      "buffer": 0,
      "byteLength": 1415952,
      "byteOffset": 0,
      "name": "floatBufferViews",
      "target": 34963
    },
    {
      "buffer": 0,
      "byteLength": 471608,
      "byteOffset": 1415952,
      "byteStride": 8,
      "name": "floatBufferViews",
      "target": 34962
    },
    {
      "buffer": 0,
      "byteLength": 1547592,
      "byteOffset": 1887560,
      "byteStride": 12,
      "name": "floatBufferViews",
      "target": 34962
    },
    {
      "buffer": 0,
      "byteLength": 943216,
      "byteOffset": 3435152,
      "byteStride": 16,
      "name": "floatBufferViews",
      "target": 34962
    }
  ],
  "buffers": [
    {
      "byteLength": 4378368,
      "uri": "scene.bin"
    }
  ],
  "images": [
    {
      "uri": "textures/Plug_Material_metallicRoughness.png"
    },
    {
      "uri": "textures/Plug_Material_baseColor.png"
    },
    {
      "uri": "textures/Bulb_Material_metallicRoughness.png"
    },
    {
      "uri": "textures/Bulb_Material_baseColor.png"
    },
    {
      "uri": "textures/Bulb_Material_emissive.png"
    },
    {
      "uri": "textures/Lamp_Material_metallicRoughness.png"
    },
    {
      "uri": "textures/Lamp_Material_baseColor.png"
    },
    {
      "uri": "textures/Lamp_Material_normal.png"
    }
  ],
  "materials": [
    {
      "doubleSided": true,
      "emissiveFactor": [
        1,
        1,
        1
      ],
      "emissiveTexture": {
        "index": 4,
        "texCoord": 0
      },
      "name": "Bulb_Material",
      "pbrMetallicRoughness": {
        "baseColorFactor": [
          1,
          1,
          1,
          1
        ],
        "baseColorTexture": {
          "index": 3,
          "texCoord": 0
        },
        "metallicFactor": 1,
        "metallicRoughnessTexture": {
          "index": 2,
          "texCoord": 0
        },
        "roughnessFactor": 0.59297698399999998
      }
    },
    {
      "doubleSided": true,
      "emissiveFactor": [
        0,
        0,
        0
      ],
      "name": "Cable_Material",
      "pbrMetallicRoughness": {
        "baseColorFactor": [
          0.80000000000000004,
          0.74909599999999998,
          0.64881299999999997,
          1
        ],
        "metallicFactor": 0,
        "roughnessFactor": 0.80681346200000004
      }
    },
    {
      "doubleSided": true,
      "emissiveFactor": [
        0,
        0,
        0
      ],
      "name": "Lamp_Material",
      "normalTexture": {
        "index": 7,
        "scale": 1,
        "texCoord": 0
      },
      "pbrMetallicRoughness": {
        "baseColorFactor": [
          1,
          1,
          1,
          1
        ],
        "baseColorTexture": {
          "index": 6,
          "texCoord": 0
        },
        "metallicFactor": 1,
        "metallicRoughnessTexture": {
          "index": 5,
          "texCoord": 0
        },
        "roughnessFactor": 0.48605874500000001
      }
    },
    {
      "doubleSided": true,
      "emissiveFactor": [
        0,
        0,
        0
      ],
      "name": "Plug_Material",
      "pbrMetallicRoughness": {
        "baseColorFactor": [
          1,
          1,
          1,
          1
        ],
        "baseColorTexture": {
          "index": 1,
          "texCoord": 0
        },
        "metallicFactor": 1,
        "metallicRoughnessTexture": {
          "index": 0,
          "texCoord": 0
        },
        "roughnessFactor": 0.44203358780000002
      }
    }
  ],
  "meshes": [
    {
      "primitives": [
        {
          "attributes": {
            "NORMAL": 1,
            "POSITION": 0,
            "TANGENT": 2,
            "TEXCOORD_0": 3
          },
          "indices": 4,
          "material": 0,
          "mode": 4
        }
      ]
    },
    {
      "primitives": [
        {
          "attributes": {
            "NORMAL": 6,
            "POSITION": 5
          },
          "indices": 7,
          "material": 1,
          "mode": 4
        }
      ]
    },
    {
      "primitives": [
        {
          "attributes": {
            "NORMAL": 9,
            "POSITION": 8,
            "TANGENT": 10,
            "TEXCOORD_0": 11
          },
          "indices": 12,
          "material": 2,
          "mode": 4
        }
      ]
    },
    {
      "primitives": [
        {
          "attributes": {
            "NORMAL": 14,
            "POSITION": 13,
            "TANGENT": 15,
            "TEXCOORD_0": 16
          },
          "indices": 17,
          "material": 3,
          "mode": 4
        }
      ]
    }
  ],
  "nodes": [
    {
      "children": [
        1
      ],
      "name": "RootNode (gltf orientation matrix)",
      "rotation": [
        -0.70710678118654746,
        -0,
        -0,
        0.70710678118654757
      ]
    },
    {
      "children": [
        2
      ],
      "name": "RootNode (model correction matrix)"
    },
    {
      "children": [
        3,
        4,
        5,
        6
      ],
      "name": "Lamp.obj.cleaner.materialmerger.gles"
    },
    {
      "mesh": 0,
      "name": ""
    },
    {
      "mesh": 1,
      "name": ""
    },
    {
      "mesh": 2,
      "name": ""
    },
    {
      "mesh": 3,
      "name": ""
    }
  ],
  "samplers": [
    {
      "magFilter": 9729,
      "minFilter": 9987,
      "wrapS": 10497,
      "wrapT": 10497
    }
  ],
  "scene": 0,
  "scenes": [
    {
      "name": "OSG_Scene",
      "nodes": [
        0
      ]
    }
  ],
  "textures": [
    {
      "sampler": 0,
      "source": 0
    },
    {
      "sampler": 0,
      "source": 1
    },
    {
      "sampler": 0,
      "source": 2
    },
    {
      "sampler": 0,
      "source": 3
    },
    {
      "sampler": 0,
      "source": 4
    },
    {
      "sampler": 0,
      "source": 5
    },
    {
      "sampler": 0,
      "source": 6
    },
    {
      "sampler": 0,
      "source": 7
    }
  ]
}

