{
  "accessors": [
    {
      "bufferView": 2,
      "componentType": 5126,
      "count": 303,
      "max": [
        812.33892822265625,
        380.9530029296875,
        4.8376836776733398
      ],
      "min": [
        62.33892822265625,
        130.9530029296875,
        0
      ],
      "type": "VEC3"
    },
    {
      "bufferView": 2,
      "byteOffset": 3636,
      "componentType": 5126,
      "count": 303,
      "max": [
        0.73210126161575317,
        0.51647108793258667,
        1
      ],
      "min": [
        -0.7327580451965332,
        -0.51796084642410278,
        0.68024307489395142
      ],
      "type": "VEC3"
    },
    {
      "bufferView": 3,
      "componentType": 5126,
      "count": 303,
      "max": [
        -0.67765921354293823,
        0.12302302569150925,
        0.72991913557052612,
        1
      ],
      "min": [
        -1,
        -0.11545917391777039,
        -0.72983002662658691,
        1
      ],
      "type": "VEC4"
    },
    {
      "bufferView": 1,
      "componentType": 5126,
      "count": 303,
      "max": [
        1,
        1
      ],
      "min": [
        0,
        0
      ],
      "type": "VEC2"
    },
    {
      "bufferView": 0,
      "componentType": 5125,
      "count": 1647,
      "max": [
        302
      ],
      "min": [
        0
      ],
      "type": "SCALAR"
    },
    {
      "bufferView": 2,
      "byteOffset": 7272,
      "componentType": 5126,
      "count": 3336,
      "max": [
        874.6778564453125,
        178.58114624023438,
        323.389404296875
      ],
      "min": [
        0,
        0,
        1.3999999282532372e-05
      ],
      "type": "VEC3"
    },
    {
      "bufferView": 2,
      "byteOffset": 47304,
      "componentType": 5126,
      "count": 3336,
      "max": [
        1,
        1,
        1
      ],
      "min": [
        -1,
        -1,
        -1
      ],
      "type": "VEC3"
    },
    {
      "bufferView": 3,
      "byteOffset": 4848,
      "componentType": 5126,
      "count": 3336,
      "max": [
        1,
        0.99999839067459106,
        1,
        1
      ],
      "min": [
        -1,
        -0.99998342990875244,
        -0.99999982118606567,
        -1
      ],
      "type": "VEC4"
    },
    {
      "bufferView": 1,
      "byteOffset": 2424,
      "componentType": 5126,
      "count": 3336,
      "max": [
        3.9810769557952881,
        0.99623799324035645
      ],
      "min": [
        0.0033770001027733088,
        0.0036760000512003899
      ],
      "type": "VEC2"
    },
    {
      "bufferView": 0,
      "byteOffset": 6588,
      "componentType": 5125,
      "count": 14436,
      "max": [
        3335
      ],
      "min": [
        0
      ],
      "type": "SCALAR"
    },
    {
      "bufferView": 2,
      "byteOffset": 87336,
      "componentType": 5126,
      "count": 288,
      "max": [
        874.6778564453125,
        164.35011291503906,
        174.54832458496094
      ],
      "min": [
        0,
        14.231048583984375,
        20.767217636108398
      ],
      "type": "VEC3"
    },
    {
      "bufferView": 2,
      "byteOffset": 90792,
      "componentType": 5126,
      "count": 288,
      "max": [
        1,
        0.99992865324020386,
        0.99998623132705688
      ],
      "min": [
        -1,
        -0.99992865324020386,
        0
      ],
      "type": "VEC3"
    },
    {
      "bufferView": 3,
      "byteOffset": 58224,
      "componentType": 5126,
      "count": 288,
      "max": [
        0.999961256980896,
        0.80924046039581299,
        0.99999165534973145,
        1
      ],
      "min": [
        -0.99996137619018555,
        -0.80924052000045776,
        -0.99998182058334351,
        -1
      ],
      "type": "VEC4"
    },
    {
      "bufferView": 1,
      "byteOffset": 29112,
      "componentType": 5126,
      "count": 288,
      "max": [
        3.2845890522003174,
        0.98997002840042114
      ],
      "min": [
        0.0081839999184012413,
        0.67194700241088867
      ],
      "type": "VEC2"
    },
    {
      "bufferView": 0,
      "byteOffset": 64332,
      "componentType": 5125,
      "count": 1140,
      "max": [
        287
      ],
      "min": [
        0
      ],
      "type": "SCALAR"
    },
    {
      "bufferView": 2,
      "byteOffset": 94248,
      "componentType": 5126,
      "count": 1128,
      "max": [
        812.33892822265625,
        381.2344970703125,
        337.8817138671875
      ],
      "min": [
        62.33892822265625,
        131.23451232910156,
        318.183349609375
      ],
      "type": "VEC3"
    },
    {
      "bufferView": 2,
      "byteOffset": 107784,
      "componentType": 5126,
      "count": 1128,
      "max": [
        0.98209547996520996,
        0.97312647104263306,
        -0.17759695649147034
      ],
      "min": [
        -0.98209524154663086,
        -0.9731258749961853,
        -1
      ],
      "type": "VEC3"
    },
    {
      "bufferView": 3,
      "byteOffset": 62832,
      "componentType": 5126,
      "count": 1128,
      "max": [
        0.99999994039535522,
        0.37810444831848145,
        0.97484058141708374,
        1
      ],
      "min": [
        0.18677233159542084,
        -0.48971295356750488,
        -0.97553902864456177,
        1
      ],
      "type": "VEC4"
    },
    {
      "bufferView": 1,
      "byteOffset": 31416,
      "componentType": 5126,
      "count": 1128,
      "max": [
        1,
        1
      ],
      "min": [
        0,
        0
      ],
      "type": "VEC2"
    },
    {
      "bufferView": 0,
      "byteOffset": 68892,
      "componentType": 5125,
      "count": 6390,
      "max": [
        1127
      ],
      "min": [
        0
      ],
      "type": "SCALAR"
    }
  ],
  "asset": {
    "extras": {
      "author": "JJ Chalupnik (https://sketchfab.com/jjchalupnik)",
      "license": "CC-BY-4.0 (http://creativecommons.org/licenses/by/4.0/)",
      "source": "https://sketchfab.com/models/e7f231ea8fda472ba1245b94362301f9",
      "title": "Sci Fi Environment Tile Set"
    },
    "generator": "Sketchfab-3.19.6",
    "version": "2.0"
  },
  "bufferViews": [
    {
      "buffer": 0,
      "byteLength": 94452,
      "byteOffset": 0,
      "name": "floatBufferViews",
      "target": 34963
    },
    {
      "buffer": 0,
      "byteLength": 40440,
      "byteOffset": 94452,
      "byteStride": 8,
      "name": "floatBufferViews",
      "target": 34962
    },
    {
      "buffer": 0,
      "byteLength": 121320,
      "byteOffset": 134892,
      "byteStride": 12,
      "name": "floatBufferViews",
      "target": 34962
    },
    {
      "buffer": 0,
      "byteLength": 80880,
      "byteOffset": 256212,
      "byteStride": 16,
      "name": "floatBufferViews",
      "target": 34962
    }
  ],
  "buffers": [
    {
      "byteLength": 337092,
      "uri": "scene.bin"
    }
  ],
  "images": [
    {
      "uri": "textures/M_SciFi_GroundTile_A_SG_baseColor.png"
    },
    {
      "uri": "textures/M_SciFi_GroundTile_A_SG_normal.png"
    },
    {
      "uri": "textures/M_SciFi_GroundTile_A_SG_metallicRoughness.png"
    },
    {
      "uri": "textures/StingrayPBS3SG_emissive.png"
    },
    {
      "uri": "textures/StingrayPBS3SG_metallicRoughness.png"
    },
    {
      "uri": "textures/StingrayPBS3SG_normal.png"
    },
    {
      "uri": "textures/StingrayPBS3SG_baseColor.png"
    },
    {
      "uri": "textures/StingrayPBS2SG_emissive.png"
    },
    {
      "uri": "textures/StingrayPBS2SG_metallicRoughness.png"
    },
    {
      "uri": "textures/StingrayPBS2SG_normal.png"
    },
    {
      "uri": "textures/StingrayPBS2SG_baseColor.png"
    }
  ],
  "materials": [
    {
      "doubleSided": true,
      "name": "M_SciFi_GroundTile_A_SG",
      "normalTexture": {
        "index": 1,
        "scale": 1,
        "texCoord": 0
      },
      "occlusionTexture": {
        "index": 2,
        "strength": 1,
        "texCoord": 0
      },
      "pbrMetallicRoughness": {
        "baseColorFactor": [
          1,
          1,
          1,
          1
        ],
        "baseColorTexture": {
          "index": 0,
          "texCoord": 0
        },
        "metallicFactor": 1,
        "metallicRoughnessTexture": {
          "index": 2,
          "texCoord": 0
        },
        "roughnessFactor": 1
      }
    },
    {
      "doubleSided": false,
      "emissiveFactor": [
        1,
        1,
        1
      ],
      "emissiveTexture": {
        "index": 7,
        "texCoord": 0
      },
      "name": "StingrayPBS2SG",
      "normalTexture": {
        "index": 9,
        "scale": 1,
        "texCoord": 0
      },
      "occlusionTexture": {
        "index": 8,
        "strength": 1,
        "texCoord": 0
      },
      "pbrMetallicRoughness": {
        "baseColorFactor": [
          1,
          1,
          1,
          1
        ],
        "baseColorTexture": {
          "index": 10,
          "texCoord": 0
        },
        "metallicFactor": 1,
        "metallicRoughnessTexture": {
          "index": 8,
          "texCoord": 0
        },
        "roughnessFactor": 1
      }
    },
    {
      "doubleSided": true,
      "emissiveFactor": [
        1,
        1,
        1
      ],
      "emissiveTexture": {
        "index": 3,
        "texCoord": 0
      },
      "name": "StingrayPBS3SG",
      "normalTexture": {
        "index": 5,
        "scale": 1,
        "texCoord": 0
      },
      "occlusionTexture": {
        "index": 4,
        "strength": 1,
        "texCoord": 0
      },
      "pbrMetallicRoughness": {
        "baseColorFactor": [
          1,
          1,
          1,
          1
        ],
        "baseColorTexture": {
          "index": 6,
          "texCoord": 0
        },
        "metallicFactor": 1,
        "metallicRoughnessTexture": {
          "index": 4,
          "texCoord": 0
        },
        "roughnessFactor": 1
      }
    }
  ],
  "meshes": [
    {
      "primitives": [
        {
          "attributes": {
            "NORMAL": 1,
            "POSITION": 0,
            "TANGENT": 2,
            "TEXCOORD_0": 3
          },
          "indices": 4,
          "material": 0,
          "mode": 4
        }
      ]
    },
    {
      "primitives": [
        {
          "attributes": {
            "NORMAL": 6,
            "POSITION": 5,
            "TANGENT": 7,
            "TEXCOORD_0": 8
          },
          "indices": 9,
          "material": 1,
          "mode": 4
        }
      ]
    },
    {
      "primitives": [
        {
          "attributes": {
            "NORMAL": 11,
            "POSITION": 10,
            "TANGENT": 12,
            "TEXCOORD_0": 13
          },
          "indices": 14,
          "material": 1,
          "mode": 4
        }
      ]
    },
    {
      "primitives": [
        {
          "attributes": {
            "NORMAL": 16,
            "POSITION": 15,
            "TANGENT": 17,
            "TEXCOORD_0": 18
          },
          "indices": 19,
          "material": 2,
          "mode": 4
        }
      ]
    }
  ],
  "nodes": [
    {
      "children": [
        1
      ],
      "name": "RootNode (gltf orientation matrix)",
      "rotation": [
        -0.70710678118654746,
        -0,
        -0,
        0.70710678118654757
      ]
    },
    {
      "children": [
        2
      ],
      "name": "RootNode (model correction matrix)"
    },
    {
      "children": [
        3
      ],
      "matrix": [
        1,
        0,
        0,
        0,
        0,
        1,
        0,
        0,
        0,
        0,
        1,
        0,
        -437.33892822265625,
        -89.290573120117188,
        -1.4999999621068127e-05,
        1
      ],
      "name": "Sci_Fi_Tile_Set.obj.cleaner.materialmerger.gles"
    },
    {
      "children": [
        4,
        5,
        6,
        7
      ],
      "name": ""
    },
    {
      "mesh": 0,
      "name": ""
    },
    {
      "mesh": 1,
      "name": ""
    },
    {
      "mesh": 2,
      "name": ""
    },
    {
      "mesh": 3,
      "name": ""
    }
  ],
  "samplers": [
    {
      "magFilter": 9729,
      "minFilter": 9987,
      "wrapS": 10497,
      "wrapT": 10497
    }
  ],
  "scene": 0,
  "scenes": [
    {
      "name": "OSG_Scene",
      "nodes": [
        0
      ]
    }
  ],
  "textures": [
    {
      "sampler": 0,
      "source": 0
    },
    {
      "sampler": 0,
      "source": 1
    },
    {
      "sampler": 0,
      "source": 2
    },
    {
      "sampler": 0,
      "source": 3
    },
    {
      "sampler": 0,
      "source": 4
    },
    {
      "sampler": 0,
      "source": 5
    },
    {
      "sampler": 0,
      "source": 6
    },
    {
      "sampler": 0,
      "source": 7
    },
    {
      "sampler": 0,
      "source": 8
    },
    {
      "sampler": 0,
      "source": 9
    },
    {
      "sampler": 0,
      "source": 10
    }
  ]
}

