{
    "asset" : {
        "generator" : "Khronos glTF Blender I/O v0.9.29",
        "version" : "2.0"
    },
    "scene" : 0,
    "scenes" : [
        {
            "name" : "Scene",
            "nodes" : [
                5
            ]
        }
    ],
    "nodes" : [
        {
            "mesh" : 0,
            "name" : "polySurface15_lambert1_0"
        },
        {
            "children" : [
                0
            ],
            "name" : "polySurface15"
        },
        {
            "children" : [
                1
            ],
            "name" : "RootNode"
        },
        {
            "children" : [
                2
            ],
            "name" : "3f581c3fdeb14ee582136b682c4515ea.fbx",
            "rotation" : [
                0.7071068286895752,
                0,
                0,
                0.7071068286895752
            ]
        },
        {
            "children" : [
                3
            ],
            "name" : "RootNode (model correction matrix)"
        },
        {
            "children" : [
                4
            ],
            "name" : "RootNode (gltf orientation matrix)",
            "scale" : [
                0.0018309453735128045,
                0.0018309460720047355,
                0.0018309460720047355
            ]
        }
    ],
    "materials" : [
        {
            "doubleSided" : true,
            "emissiveFactor" : [
                1,
                1,
                1
            ],
            "emissiveTexture" : {
                "index" : 0,
                "texCoord" : 0
            },
            "name" : "lambert1.001",
            "normalTexture" : {
                "index" : 1,
                "texCoord" : 0
            },
            "pbrMetallicRoughness" : {
                "baseColorTexture" : {
                    "index" : 2,
                    "texCoord" : 0
                },
                "metallicRoughnessTexture" : {
                    "index" : 3,
                    "texCoord" : 0
                }
            }
        }
    ],
    "meshes" : [
        {
            "name" : "polySurface15_lambert1_0.001",
            "primitives" : [
                {
                    "attributes" : {
                        "POSITION" : 0,
                        "NORMAL" : 1,
                        "TEXCOORD_0" : 2
                    },
                    "indices" : 3,
                    "material" : 0
                }
            ]
        }
    ],
    "textures" : [
        {
            "source" : 0
        },
        {
            "source" : 1
        },
        {
            "source" : 2
        },
        {
            "source" : 3
        }
    ],
    "images" : [
        {
            "mimeType" : "image/png",
            "name" : "lambert1_emissive",
            "uri" : "lambert1_emissive.png"
        },
        {
            "mimeType" : "image/png",
            "name" : "lambert1_normal",
            "uri" : "lambert1_normal.png"
        },
        {
            "mimeType" : "image/png",
            "name" : "lambert1_baseColor",
            "uri" : "lambert1_baseColor.png"
        },
        {
            "mimeType" : "image/png",
            "name" : "lambert1_metallicRoughness",
            "uri" : "lambert1_metallicRoughness.png"
        }
    ],
    "accessors" : [
        {
            "bufferView" : 0,
            "componentType" : 5126,
            "count" : 26168,
            "max" : [
                489.91302490234375,
                497.5648498535156,
                4.251789505360648e-06
            ],
            "min" : [
                -487.7106628417969,
                -497.9570007324219,
                -1193.910888671875
            ],
            "type" : "VEC3"
        },
        {
            "bufferView" : 1,
            "componentType" : 5126,
            "count" : 26168,
            "type" : "VEC3"
        },
        {
            "bufferView" : 2,
            "componentType" : 5126,
            "count" : 26168,
            "type" : "VEC2"
        },
        {
            "bufferView" : 3,
            "componentType" : 5123,
            "count" : 79260,
            "type" : "SCALAR"
        }
    ],
    "bufferViews" : [
        {
            "buffer" : 0,
            "byteLength" : 314016,
            "byteOffset" : 0
        },
        {
            "buffer" : 0,
            "byteLength" : 314016,
            "byteOffset" : 314016
        },
        {
            "buffer" : 0,
            "byteLength" : 209344,
            "byteOffset" : 628032
        },
        {
            "buffer" : 0,
            "byteLength" : 158520,
            "byteOffset" : 837376
        }
    ],
    "buffers" : [
        {
            "byteLength" : 995896,
            "uri" : "scene.bin"
        }
    ]
}
