{
    "asset" : {
        "generator" : "Khronos glTF Blender I/O v0.9.53",
        "version" : "2.0"
    },
    "scene" : 0,
    "scenes" : [
        {
            "name" : "Scene",
            "nodes" : [
                0
            ]
        }
    ],
    "nodes" : [
        {
            "mesh" : 0,
            "name" : "TargetDummy",
            "rotation" : [
                0.7071068286895752,
                0,
                0,
                0.7071067094802856
            ],
            "scale" : [
                0.04968000948429108,
                0.049680013209581375,
                0.4613257050514221
            ],
            "translation" : [
                -2.0214171409606934,
                0,
                0
            ]
        }
    ],
    "materials" : [
        {
            "doubleSided" : true,
            "name" : "Material.001",
            "pbrMetallicRoughness" : {
                "baseColorFactor" : [
                    1,
                    0.00889101717621088,
                    0.015456927008926868,
                    1
                ],
                "metallicFactor" : 0.790123462677002,
                "roughnessFactor" : 0.48148149251937866
            }
        }
    ],
    "meshes" : [
        {
            "name" : "Cylinder.001",
            "primitives" : [
                {
                    "attributes" : {
                        "POSITION" : 0,
                        "NORMAL" : 1
                    },
                    "indices" : 2,
                    "material" : 0
                }
            ]
        }
    ],
    "accessors" : [
        {
            "bufferView" : 0,
            "componentType" : 5126,
            "count" : 303,
            "max" : [
                5.0378193855285645,
                7.673990249633789,
                -0.028293728828430176
            ],
            "min" : [
                -4.967114448547363,
                -7.673989772796631,
                -3.8043155670166016
            ],
            "type" : "VEC3"
        },
        {
            "bufferView" : 1,
            "componentType" : 5126,
            "count" : 303,
            "type" : "VEC3"
        },
        {
            "bufferView" : 2,
            "componentType" : 5123,
            "count" : 1668,
            "type" : "SCALAR"
        }
    ],
    "bufferViews" : [
        {
            "buffer" : 0,
            "byteLength" : 3636,
            "byteOffset" : 0
        },
        {
            "buffer" : 0,
            "byteLength" : 3636,
            "byteOffset" : 3636
        },
        {
            "buffer" : 0,
            "byteLength" : 3336,
            "byteOffset" : 7272
        }
    ],
    "buffers" : [
        {
            "byteLength" : 10608,
            "uri" : "TargetDummy.bin"
        }
    ]
}
